<svg width="32" height="33" viewBox="0 0 32 33" fill="none" xmlns="http://www.w3.org/2000/svg">
<rect width="32" height="33" fill="#E5E5E5"/>
<rect width="2299" height="3087.64" transform="translate(-1260 -1154)" fill="white"/>
<rect x="-1180.5" y="-28.8582" width="2140" height="939" rx="4.5" stroke="#9747FF" stroke-dasharray="10 5"/>
<g clip-path="url(#clip0_0_1)">
<path d="M-530 -4.35815C-530 -7.11958 -527.761 -9.35815 -525 -9.35815H47C49.7614 -9.35815 52 -7.11958 52 -4.35815V37.6418C52 40.4033 49.7614 42.6418 47 42.6418H-525C-527.761 42.6418 -530 40.4033 -530 37.6418V-4.35815Z" fill="#F7F7F7"/>
<rect x="-530" y="-9.35815" width="582" height="52" rx="10" fill="#FF6060"/>
<path d="M14.7897 11.4315C15.4591 10.7621 16.5462 10.7621 17.2157 11.4315L27.4979 21.7138C28.1674 22.3832 28.1674 23.4704 27.4979 24.1398C26.8285 24.8092 25.7414 24.8092 25.072 24.1398L16 15.0678L6.92804 24.1344C6.25862 24.8039 5.17148 24.8039 4.50206 24.1344C3.83265 23.465 3.83265 22.3779 4.50206 21.7085L14.7843 11.4262L14.7897 11.4315Z" fill="white"/>
</g>
<defs>
<clipPath id="clip0_0_1">
<rect x="-530" y="-9.35815" width="582" height="52" rx="5" fill="white"/>
</clipPath>
</defs>
</svg>
